HIERARCHY
ROOT pelvis
{
	OFFSET 0.003123 -0.351407 0.012037
	CHANNELS 6 Xposition Yposition Zposition Zrotation Yrotation Xrotation 
	JOINT left_hip
	{
		OFFSET 0.058189 -0.092763 -0.026001
		CHANNELS 3 Zrotation Yrotation Xrotation
		JOINT left_knee
		{
			OFFSET 0.054695 -0.378753 -0.009396
			CHANNELS 3 Zrotation Yrotation Xrotation
			JOINT left_ankle
			{
				OFFSET -0.043453 -0.403059 -0.031876
				CHANNELS 3 Zrotation Yrotation Xrotation
				JOINT left_foot
				{
					OFFSET 0.047257 -0.057997 0.118216
					CHANNELS 3 Zrotation Yrotation Xrotation
					End Site
					{
						OFFSET 0.000000 0.000000 0.000000
					}
				}
			}
		}
	}
	JOINT right_hip
	{
		OFFSET -0.063267 -0.103908 -0.021250
		CHANNELS 3 Zrotation Yrotation Xrotation
		JOINT right_knee
		{
			OFFSET -0.044210 -0.362380 -0.016824
			CHANNELS 3 Zrotation Yrotation Xrotation
			JOINT right_ankle
			{
				OFFSET 0.015417 -0.410728 -0.020192
				CHANNELS 3 Zrotation Yrotation Xrotation
				JOINT right_foot
				{
					OFFSET -0.038812 -0.058328 0.119049
					CHANNELS 3 Zrotation Yrotation Xrotation
					End Site
					{
						OFFSET 0.000000 0.000000 0.000000
					}
				}
			}
		}
	}
	JOINT spine_1
	{
		OFFSET -0.002763 0.109891 -0.027618
		CHANNELS 3 Zrotation Yrotation Xrotation
		JOINT spine_2
		{
			OFFSET 0.009448 0.131853 -0.005940
			CHANNELS 3 Zrotation Yrotation Xrotation
			JOINT spine_3
			{
				OFFSET -0.011330 0.052235 0.028447
				CHANNELS 3 Zrotation Yrotation Xrotation
				JOINT neck
				{
					OFFSET -0.012164 0.165167 -0.031615
					CHANNELS 3 Zrotation Yrotation Xrotation
					JOINT head
					{
						OFFSET 0.024783 0.160452 0.020737
						CHANNELS 3 Zrotation Yrotation Xrotation
						End Site
						{
							OFFSET 0.000000 0.000000 0.000000
						}
					}
				}
				JOINT left_collar
				{
					OFFSET 0.046364 0.084944 -0.007220
					CHANNELS 3 Zrotation Yrotation Xrotation
					JOINT left_shoulder
					{
						OFFSET 0.119239 0.057728 -0.015461
						CHANNELS 3 Zrotation Yrotation Xrotation
						JOINT left_elbow
						{
							OFFSET 0.254123 -0.072151 -0.042459
							CHANNELS 3 Zrotation Yrotation Xrotation
							JOINT left_wrist
							{
								OFFSET 0.251987 0.023221 -0.002472
								CHANNELS 3 Zrotation Yrotation Xrotation
								JOINT left_index_1
								{
									OFFSET 0.101902 -0.008688 0.019351
									CHANNELS 3 Zrotation Yrotation Xrotation
									JOINT left_index_2
									{
										OFFSET 0.030149 -0.011154 0.001151
										CHANNELS 3 Zrotation Yrotation Xrotation
										JOINT left_index_3
										{
											OFFSET 0.006504 -0.021577 -0.002433
											CHANNELS 3 Zrotation Yrotation Xrotation
											End Site
											{
												OFFSET 0.000000 0.000000 0.000000
											}
										}
									}
								}
								JOINT left_middle_1
								{
									OFFSET 0.109398 -0.006328 -0.003981
									CHANNELS 3 Zrotation Yrotation Xrotation
									JOINT left_middle_2
									{
										OFFSET 0.026472 -0.015218 -0.004641
										CHANNELS 3 Zrotation Yrotation Xrotation
										JOINT left_middle_3
										{
											OFFSET 0.005022 -0.023347 -0.001911
											CHANNELS 3 Zrotation Yrotation Xrotation
											End Site
											{
												OFFSET 0.000000 0.000000 0.000000
											}
										}
									}
								}
								JOINT left_pinky_1
								{
									OFFSET 0.084047 -0.014539 -0.043750
									CHANNELS 3 Zrotation Yrotation Xrotation
									JOINT left_pinky_2
									{
										OFFSET 0.012124 -0.014448 -0.005375
										CHANNELS 3 Zrotation Yrotation Xrotation
										JOINT left_pinky_3
										{
											OFFSET 0.003798 -0.018853 0.000167
											CHANNELS 3 Zrotation Yrotation Xrotation
											End Site
											{
												OFFSET 0.000000 0.000000 0.000000
											}
										}
									}
								}
								JOINT left_ring_1
								{
									OFFSET 0.097444 -0.009268 -0.027345
									CHANNELS 3 Zrotation Yrotation Xrotation
									JOINT left_ring_2
									{
										OFFSET 0.023561 -0.016057 -0.001895
										CHANNELS 3 Zrotation Yrotation Xrotation
										JOINT left_ring_3
										{
											OFFSET 0.004257 -0.023548 0.000814
											CHANNELS 3 Zrotation Yrotation Xrotation
											End Site
											{
												OFFSET 0.000000 0.000000 0.000000
											}
										}
									}
								}
								JOINT left_thumb_1
								{
									OFFSET 0.040636 -0.017977 0.025611
									CHANNELS 3 Zrotation Yrotation Xrotation
									JOINT left_thumb_2
									{
										OFFSET 0.021637 -0.017639 0.011623
										CHANNELS 3 Zrotation Yrotation Xrotation
										JOINT left_thumb_3
										{
											OFFSET 0.024002 -0.008356 0.006548
											CHANNELS 3 Zrotation Yrotation Xrotation
											End Site
											{
												OFFSET 0.000000 0.000000 0.000000
											}
										}
									}
								}
							}
						}
					}
				}
				JOINT right_collar
				{
					OFFSET -0.047695 0.084339 -0.013400
					CHANNELS 3 Zrotation Yrotation Xrotation
					JOINT right_shoulder
					{
						OFFSET -0.102578 0.053524 -0.012669
						CHANNELS 3 Zrotation Yrotation Xrotation
						JOINT right_elbow
						{
							OFFSET -0.271150 -0.036492 -0.026467
							CHANNELS 3 Zrotation Yrotation Xrotation
							JOINT right_wrist
							{
								OFFSET -0.249267 -0.004533 -0.015325
								CHANNELS 3 Zrotation Yrotation Xrotation
								JOINT right_index_1
								{
									OFFSET -0.099881 -0.011783 0.019600
									CHANNELS 3 Zrotation Yrotation Xrotation
									JOINT right_index_2
									{
										OFFSET -0.030148 -0.011154 0.001151
										CHANNELS 3 Zrotation Yrotation Xrotation
										JOINT right_index_3
										{
											OFFSET -0.006505 -0.021577 -0.002432
											CHANNELS 3 Zrotation Yrotation Xrotation
											End Site
											{
												OFFSET 0.000000 0.000000 0.000000
											}
										}
									}
								}
								JOINT right_middle_1
								{
									OFFSET -0.107376 -0.009422 -0.003734
									CHANNELS 3 Zrotation Yrotation Xrotation
									JOINT right_middle_2
									{
										OFFSET -0.026472 -0.015218 -0.004641
										CHANNELS 3 Zrotation Yrotation Xrotation
										JOINT right_middle_3
										{
											OFFSET -0.005022 -0.023347 -0.001911
											CHANNELS 3 Zrotation Yrotation Xrotation
											End Site
											{
												OFFSET 0.000000 0.000000 0.000000
											}
										}
									}
								}
								JOINT right_pinky_1
								{
									OFFSET -0.082027 -0.017634 -0.043503
									CHANNELS 3 Zrotation Yrotation Xrotation
									JOINT right_pinky_2
									{
										OFFSET -0.012123 -0.014448 -0.005374
										CHANNELS 3 Zrotation Yrotation Xrotation
										JOINT right_pinky_3
										{
											OFFSET -0.003798 -0.018852 0.000167
											CHANNELS 3 Zrotation Yrotation Xrotation
											End Site
											{
												OFFSET 0.000000 0.000000 0.000000
											}
										}
									}
								}
								JOINT right_ring_1
								{
									OFFSET -0.095423 -0.012362 -0.027099
									CHANNELS 3 Zrotation Yrotation Xrotation
									JOINT right_ring_2
									{
										OFFSET -0.023561 -0.016057 -0.001895
										CHANNELS 3 Zrotation Yrotation Xrotation
										JOINT right_ring_3
										{
											OFFSET -0.004257 -0.023548 0.000816
											CHANNELS 3 Zrotation Yrotation Xrotation
											End Site
											{
												OFFSET 0.000000 0.000000 0.000000
											}
										}
									}
								}
								JOINT right_thumb_1
								{
									OFFSET -0.038613 -0.021074 0.025861
									CHANNELS 3 Zrotation Yrotation Xrotation
									JOINT right_thumb_2
									{
										OFFSET -0.021636 -0.017639 0.011623
										CHANNELS 3 Zrotation Yrotation Xrotation
										JOINT right_thumb_3
										{
											OFFSET -0.024004 -0.008353 0.006547
											CHANNELS 3 Zrotation Yrotation Xrotation
											End Site
											{
												OFFSET 0.000000 0.000000 0.000000
											}
										}
									}
								}
							}
						}
					}
				}
			}
		}
	}
}
MOTION
Frames: 5
Frame Time: 0.050000
0.057503 0.921841 -0.119522 0.520303 -2.922156 -14.076916 0.385435 2.094682 14.156966 -3.120314 0.251401 0.410415 1.916391 -2.090652 -7.443455 0.000000 0.000000 0.000000 -8.052404 -0.009299 4.966924 3.548649 0.011156 15.514471 -2.395960 0.132594 -7.133861 0.000000 0.000000 0.000000 -2.847885 -0.704476 10.296854 -10.509583 1.545227 -13.145541 8.568354 1.835837 27.354583 0.685797 0.577672 -4.537406 0.000000 0.000000 0.000000 -4.490709 -1.438316 0.328440 -49.864258 -19.471143 -6.133880 126.976407 -65.537930 -89.835540 16.288266 -10.881721 -32.206900 2.773975 7.651256 1.614949 -109.383906 9.780721 -9.225612 0.000000 0.000000 0.000000 -23.064277 -23.943900 -8.316232 -85.512085 -25.111958 -22.206796 0.000000 0.000000 0.000000 10.282310 -41.082295 -61.513854 -2.130157 -1.065324 -3.557140 0.000000 0.000000 0.000000 -20.786426 -42.501171 -17.872857 -28.211812 -26.259121 -39.460617 0.000000 0.000000 0.000000 42.996450 30.995648 13.286144 -27.602826 -25.877143 2.537854 0.000000 0.000000 0.000000 -1.138949 6.661750 3.442436 64.827062 15.757067 -0.810492 14.619778 36.956990 3.845262 10.727340 -2.445283 16.330658 33.203289 -23.169961 3.348879 57.992976 -15.660363 -0.331553 0.000000 0.000000 0.000000 44.245573 -13.224911 -6.526232 67.803464 3.521836 -14.359262 0.000000 0.000000 0.000000 -12.558605 64.042326 -78.512198 44.725207 -2.229845 -1.242885 0.000000 0.000000 0.000000 46.048673 16.762315 -9.126624 59.069086 15.198373 -20.616385 0.000000 0.000000 0.000000 -0.774290 -36.842029 39.802294 -38.606181 10.827364 -22.308219 0.000000 0.000000 0.000000 
0.057032 0.921358 -0.122162 0.646950 -2.146350 -14.539881 0.349507 2.077254 14.118761 -3.158730 0.199744 1.020911 1.801720 -2.704443 -7.701434 0.000000 0.000000 0.000000 -8.273948 -0.061236 5.849987 3.713225 -0.051367 14.840484 -2.612286 -0.380532 -7.226582 0.000000 0.000000 0.000000 -3.364247 -0.721519 11.058200 -9.976362 1.304973 -13.302470 7.816510 0.600678 28.018683 0.140887 0.731203 -5.109779 0.000000 0.000000 0.000000 -4.825844 0.060290 -0.467031 -49.756505 -20.293309 -5.913075 125.847254 -65.157016 -88.005494 16.218638 -10.531046 -32.734845 1.084230 7.655089 1.529973 -107.612246 10.324885 -8.967943 0.000000 0.000000 0.000000 -19.467539 -25.473674 -9.309104 -83.078578 -25.794797 -22.694740 0.000000 0.000000 0.000000 7.831336 -41.994501 -60.826706 1.844124 -1.458143 -5.033016 0.000000 0.000000 0.000000 -21.856543 -41.459553 -16.531525 -17.705661 -24.033236 -45.994611 0.000000 0.000000 0.000000 42.718750 30.529502 12.323219 -27.123414 -26.480283 2.154240 0.000000 0.000000 0.000000 -1.690667 6.968984 3.613559 65.356332 16.286302 -0.812796 14.160834 38.636673 3.957784 11.147828 -4.369736 17.588501 26.064981 -18.276102 3.985358 55.555137 -19.038951 2.161822 0.000000 0.000000 0.000000 37.960206 -5.885879 -6.338232 67.946146 -1.478302 -11.291041 0.000000 0.000000 0.000000 -1.393668 59.284105 -59.612799 44.705049 1.749526 -12.220382 0.000000 0.000000 0.000000 35.744130 21.772566 -10.627681 61.162523 8.169926 -12.242213 0.000000 0.000000 0.000000 -6.100503 -33.920804 37.917681 -25.643614 15.729271 -17.638269 0.000000 0.000000 0.000000 
0.056325 0.921438 -0.122162 0.589618 -2.097554 -13.620059 0.225452 1.974302 13.355852 -2.857540 0.209758 0.527320 1.758205 -2.641210 -7.531673 0.000000 0.000000 0.000000 -8.152789 -0.005975 4.734111 3.814594 -0.068279 15.022450 -2.684764 -0.628242 -7.143586 0.000000 0.000000 0.000000 -2.924285 -0.664189 9.646431 -10.127995 1.910079 -11.560903 7.478409 1.472429 26.683355 0.785509 0.585500 -4.658124 0.000000 0.000000 0.000000 -3.927065 -1.551134 0.429283 -50.337016 -20.396603 -5.944017 125.562478 -63.785129 -86.334790 14.796564 -10.045940 -31.823070 4.043679 8.639505 2.133851 -97.307210 12.849514 -2.281097 0.000000 0.000000 0.000000 -19.866227 -23.491778 -8.857989 -84.773409 -23.654301 -20.348581 0.000000 0.000000 0.000000 6.449325 -41.856143 -59.561890 5.694535 -0.666246 -2.108048 0.000000 0.000000 0.000000 -18.978130 -41.377165 -18.091963 -22.160923 -24.956098 -42.944525 0.000000 0.000000 0.000000 43.857406 30.599706 12.763766 -31.458892 -25.409708 4.769637 0.000000 0.000000 0.000000 -1.579345 5.007443 2.634152 66.103357 14.716228 -1.178628 15.344827 39.578323 4.483602 10.049659 -5.655948 14.459188 30.716579 -16.468794 2.656982 51.095779 -15.554063 2.049272 0.000000 0.000000 0.000000 34.303136 -4.596407 -5.541582 67.548312 4.476226 -15.382280 0.000000 0.000000 0.000000 -17.721682 48.262590 -56.988455 59.459778 16.279389 -23.271995 0.000000 0.000000 0.000000 29.033138 19.877467 -10.580628 64.649148 12.858529 -16.005573 0.000000 0.000000 0.000000 -5.657964 -36.278536 40.148727 -31.640615 16.371321 -21.296640 0.000000 0.000000 0.000000 
0.057267 0.921599 -0.124802 0.425766 -1.965354 -13.158120 0.189609 1.881369 12.749634 -2.651776 0.204708 0.344822 1.700612 -2.658290 -7.391919 0.000000 0.000000 0.000000 -8.284737 0.045496 3.792918 4.333270 -0.161485 15.484497 -2.634794 -0.829165 -6.744885 0.000000 0.000000 0.000000 -2.261861 -0.675398 9.790083 -10.147714 1.453038 -13.076792 7.424258 1.351284 28.062637 0.453470 0.764923 -5.547112 0.000000 0.000000 0.000000 -4.513491 -0.935388 0.054935 -50.102296 -20.560935 -6.001459 125.686361 -64.565566 -87.265819 15.382057 -10.090979 -33.934348 3.402737 8.516688 2.080654 -93.685694 8.849184 -3.056963 0.000000 0.000000 0.000000 -15.751058 -23.354639 -9.227718 -81.960489 -22.699894 -19.076845 0.000000 0.000000 0.000000 10.273410 -40.914897 -60.366853 4.137356 -0.389030 -1.092482 0.000000 0.000000 0.000000 -18.218775 -39.320468 -17.030007 -16.239960 -21.658941 -41.501989 0.000000 0.000000 0.000000 42.215343 32.188593 15.359414 -28.504941 -24.135146 3.222142 0.000000 0.000000 0.000000 -1.978335 6.152788 3.207037 66.321679 14.980680 -1.083021 14.501350 39.828078 4.284634 8.590538 -3.449650 11.867470 32.718300 -17.161123 2.618736 56.633361 -15.852607 1.933237 0.000000 0.000000 0.000000 43.602990 -9.504758 -6.451835 64.379100 4.405431 -14.081638 0.000000 0.000000 0.000000 36.792627 47.655438 -44.735709 37.722264 -7.718900 5.138818 0.000000 0.000000 0.000000 48.953160 13.484376 -8.158164 56.087906 14.301055 -17.960198 0.000000 0.000000 0.000000 -4.888859 -34.898698 38.125620 -31.356755 13.694387 -19.156240 0.000000 0.000000 0.000000 
0.057738 0.921841 -0.124802 0.446919 -1.919701 -14.123020 0.385742 2.033310 13.920277 -2.935985 0.244031 0.185865 1.554429 -2.942396 -7.300022 0.000000 0.000000 0.000000 -8.379413 -0.017718 5.018879 4.288934 -0.156791 15.235736 -2.547443 -0.646132 -6.716895 0.000000 0.000000 0.000000 -2.405658 -0.748208 11.290485 -10.632276 1.536450 -13.504414 7.378126 0.228142 27.643754 0.559893 0.675010 -5.145649 0.000000 0.000000 0.000000 -4.290541 -0.048000 -0.352138 -50.251366 -19.279359 -6.008914 126.832329 -64.264996 -88.021671 15.967196 -10.858660 -33.378307 4.675795 9.423199 2.554710 -91.837562 2.906487 -6.113168 0.000000 0.000000 0.000000 -16.282631 -20.614183 -8.453345 -80.920168 -26.555507 -23.526243 0.000000 0.000000 0.000000 8.609965 -40.572914 -58.589875 11.176902 -0.587926 -1.756272 0.000000 0.000000 0.000000 -16.841867 -38.070802 -17.169144 -7.693862 -19.357417 -46.030541 0.000000 0.000000 0.000000 42.206190 31.488732 14.904761 -27.658741 -22.341119 3.310423 0.000000 0.000000 0.000000 -1.724942 6.667056 3.473459 65.340122 16.221862 -0.880638 15.544577 38.931285 4.410623 10.921544 -3.154403 13.336456 30.483901 -22.079271 4.178387 63.886581 -15.155629 -1.263216 0.000000 0.000000 0.000000 41.121392 -8.764476 -5.973614 70.466234 5.857567 -15.749209 0.000000 0.000000 0.000000 27.078898 48.264629 -47.055619 36.591606 -1.762676 -5.094322 0.000000 0.000000 0.000000 47.531715 18.440098 -9.462945 55.353782 14.602355 -19.430741 0.000000 0.000000 0.000000 -6.015386 -36.095397 40.436657 -33.983282 14.608570 -21.371057 0.000000 0.000000 0.000000 
